<svg data-v-423bf9ae="" xmlns="http://www.w3.org/2000/svg" viewBox="0 0 523 90" class="iconLeft"><!----><!----><!----><g data-v-423bf9ae="" id="e756a794-bbbe-42b2-8093-f0deeb44df54" fill="white" transform="matrix(5.602240876404433,0,0,5.602240876404433,106.0785506312526,-0.8543426833189613)"><path d="M2.62 5.66L2.62 5.66L2.62 7.57L2.62 7.57Q3.15 7.17 3.44 6.97L3.44 6.97L3.44 6.97Q3.72 6.78 4.18 6.59L4.18 6.59L4.18 6.59Q4.63 6.40 5.04 6.40L5.04 6.40L5.04 6.40Q6.08 6.40 6.64 7.04L6.64 7.04L6.64 7.04Q7.20 7.69 7.20 8.89L7.20 8.89L7.20 10.91L7.20 10.91Q7.20 12.24 7.62 13.19L7.62 13.19L7.62 13.29L5.64 13.29L5.64 13.19L5.64 13.19Q5.88 12.49 5.88 11.33L5.88 11.33L5.88 9.18L5.88 9.18Q5.88 8.37 5.63 7.96L5.63 7.96L5.63 7.96Q5.39 7.55 4.61 7.55L4.61 7.55L4.61 7.55Q3.84 7.55 2.66 8.26L2.66 8.26L2.66 10.91L2.66 10.91Q2.66 12.26 3.07 13.19L3.07 13.19L3.07 13.29L1.11 13.29L1.11 13.19L1.11 13.19Q1.34 12.49 1.34 11.33L1.34 11.33L1.34 5.07L1.34 5.07Q1.34 3.95 0.70 3.33L0.70 3.33L0.70 3.16L2.58 2.83L2.66 2.97L2.66 2.97Q2.62 3.37 2.62 5.66ZM13.01 11.80L13.01 10.49L13.01 10.49Q12.43 10.28 11.68 10.28L11.68 10.28L11.68 10.28Q10.93 10.28 10.60 10.51L10.60 10.51L10.60 10.51Q10.39 10.84 10.39 11.38L10.39 11.38L10.39 11.38Q10.39 11.91 10.68 12.22L10.68 12.22L10.68 12.22Q10.98 12.53 11.42 12.53L11.42 12.53L11.42 12.53Q11.86 12.53 12.32 12.30L12.32 12.30L12.32 12.30Q12.78 12.07 13.01 11.80L13.01 11.80ZM13.23 12.50L13.23 12.50L13.23 12.50Q12.38 13.44 11.31 13.44L11.31 13.44L11.31 13.44Q10.23 13.44 9.63 12.98L9.63 12.98L9.63 12.98Q9.02 12.52 9.02 11.49L9.02 11.49L9.02 11.49Q9.02 10.46 9.74 10.01L9.74 10.01L9.74 10.01Q10.46 9.56 11.77 9.56L11.77 9.56L13.01 9.60L13.01 8.81L13.01 8.81Q13.01 8.06 12.64 7.60L12.64 7.60L12.64 7.60Q12.28 7.14 11.54 7.14L11.54 7.14L11.54 7.14Q10.99 7.15 9.79 8.19L9.79 8.19L9.79 8.19Q9.38 7.67 9.21 6.85L9.21 6.85L9.21 6.85Q10.60 6.40 11.76 6.40L11.76 6.40L11.76 6.40Q12.92 6.40 13.62 7.00L13.62 7.00L13.62 7.00Q14.32 7.60 14.32 8.71L14.32 8.71L14.32 11.06L14.32 11.06Q14.34 11.69 14.53 12.23L14.53 12.23L14.53 12.23Q14.71 12.77 15.02 12.98L15.02 12.98L15.05 13.12L13.55 13.48L13.55 13.48Q13.37 13.03 13.23 12.50ZM16.80 11.34L16.80 11.34L16.80 8.62L16.80 8.62Q16.80 7.38 16.10 6.89L16.10 6.89L16.10 6.72L18.07 6.38L18.16 6.52L18.16 6.52Q18.12 6.93 18.12 7.69L18.12 7.69L18.12 10.99L18.12 10.99Q18.12 12.39 18.47 13.19L18.47 13.19L18.47 13.29L16.58 13.29L16.58 13.19L16.58 13.19Q16.80 12.53 16.80 11.34ZM17.98 3.37L17.98 3.37L17.98 3.37Q18.17 3.54 18.17 4.19L18.17 4.19L18.17 4.19Q18.17 4.34 18.16 4.47L18.16 4.47L18.05 4.56L18.05 4.56Q17.49 4.72 16.72 4.79L16.72 4.79L16.59 4.73L16.59 4.73Q16.38 4.37 16.38 3.77L16.38 3.77L16.38 3.77Q16.38 3.70 16.38 3.63L16.38 3.63L16.49 3.53L16.49 3.53Q17.16 3.30 17.78 3.30L17.78 3.30L17.78 3.30Q17.85 3.30 17.98 3.37ZM23.88 6.40L23.88 6.40L23.88 6.40Q24.32 6.40 24.53 6.50L24.53 6.50L24.53 6.50Q24.53 6.58 24.53 6.66L24.53 6.66L24.53 6.66Q24.53 7.49 24.28 8.16L24.28 8.16L24.28 8.16Q23.65 7.76 22.85 7.76L22.85 7.76L22.85 7.76Q22.41 7.76 21.98 7.91L21.98 7.91L21.98 10.91L21.98 10.91Q21.98 12.26 22.39 13.19L22.39 13.19L22.39 13.29L20.43 13.29L20.43 13.19L20.43 13.19Q20.66 12.49 20.66 11.33L20.66 11.33L20.66 8.95L20.66 8.95Q20.66 8.34 20.42 7.76L20.42 7.76L20.42 7.76Q20.17 7.18 19.85 6.99L19.85 6.99L19.84 6.82L21.49 6.38L21.49 6.38Q21.71 6.76 21.85 7.27L21.85 7.27L21.85 7.27Q22.69 6.40 23.88 6.40ZM32.20 11.80L32.20 10.49L32.20 10.49Q31.63 10.28 30.88 10.28L30.88 10.28L30.88 10.28Q30.13 10.28 29.79 10.51L29.79 10.51L29.79 10.51Q29.58 10.84 29.58 11.38L29.58 11.38L29.58 11.38Q29.58 11.91 29.88 12.22L29.88 12.22L29.88 12.22Q30.17 12.53 30.61 12.53L30.61 12.53L30.61 12.53Q31.05 12.53 31.51 12.30L31.51 12.30L31.51 12.30Q31.98 12.07 32.20 11.80L32.20 11.80ZM32.42 12.50L32.42 12.50L32.42 12.50Q31.57 13.44 30.50 13.44L30.50 13.44L30.50 13.44Q29.43 13.44 28.82 12.98L28.82 12.98L28.82 12.98Q28.21 12.52 28.21 11.49L28.21 11.49L28.21 11.49Q28.21 10.46 28.93 10.01L28.93 10.01L28.93 10.01Q29.65 9.56 30.97 9.56L30.97 9.56L32.20 9.60L32.20 8.81L32.20 8.81Q32.20 8.06 31.84 7.60L31.84 7.60L31.84 7.60Q31.47 7.14 30.73 7.14L30.73 7.14L30.73 7.14Q30.18 7.15 28.98 8.19L28.98 8.19L28.98 8.19Q28.57 7.67 28.41 6.85L28.41 6.85L28.41 6.85Q29.79 6.40 30.95 6.40L30.95 6.40L30.95 6.40Q32.12 6.40 32.82 7.00L32.82 7.00L32.82 7.00Q33.52 7.60 33.52 8.71L33.52 8.71L33.52 11.06L33.52 11.06Q33.53 11.69 33.72 12.23L33.72 12.23L33.72 12.23Q33.91 12.77 34.22 12.98L34.22 12.98L34.24 13.12L32.75 13.48L32.75 13.48Q32.56 13.03 32.42 12.50ZM39.80 6.40L39.80 6.40L39.80 6.40Q40.81 6.40 41.36 7.04L41.36 7.04L41.36 7.04Q41.92 7.69 41.92 8.89L41.92 8.89L41.92 10.91L41.92 10.91Q41.92 12.24 42.34 13.19L42.34 13.19L42.34 13.29L40.36 13.29L40.36 13.19L40.36 13.19Q40.60 12.49 40.60 11.33L40.60 11.33L40.60 9.18L40.60 9.18Q40.60 8.37 40.35 7.96L40.35 7.96L40.35 7.96Q40.11 7.55 39.37 7.55L39.37 7.55L39.37 7.55Q38.63 7.55 37.46 8.26L37.46 8.26L37.46 10.91L37.46 10.91Q37.46 12.26 37.87 13.19L37.87 13.19L37.87 13.29L35.91 13.29L35.91 13.19L35.91 13.19Q36.15 12.49 36.15 11.33L36.15 11.33L36.15 8.95L36.15 8.95Q36.15 8.34 35.90 7.76L35.90 7.76L35.90 7.76Q35.66 7.18 35.34 6.99L35.34 6.99L35.32 6.82L37.16 6.38L37.24 6.52L37.24 6.52Q37.35 7.04 37.41 7.57L37.41 7.57L37.41 7.57Q37.93 7.17 38.21 6.97L38.21 6.97L38.21 6.97Q38.50 6.78 38.95 6.59L38.95 6.59L38.95 6.59Q39.40 6.40 39.80 6.40ZM46.68 13.44L46.68 13.44L46.68 13.44Q45.22 13.44 44.51 12.45L44.51 12.45L44.51 12.45Q43.79 11.47 43.79 9.97L43.79 9.97L43.79 9.97Q43.79 8.47 44.71 7.43L44.71 7.43L44.71 7.43Q45.63 6.40 47.03 6.40L47.03 6.40L47.03 6.40Q47.81 6.40 48.58 6.66L48.58 6.66L48.58 5.07L48.58 5.07Q48.58 3.95 47.94 3.33L47.94 3.33L47.94 3.16L49.85 2.83L49.94 2.97L49.94 2.97Q49.90 3.37 49.90 4.13L49.90 4.13L49.90 11.06L49.90 11.06Q49.90 11.69 50.09 12.26L50.09 12.26L50.09 12.26Q50.29 12.82 50.60 13.03L50.60 13.03L50.62 13.17L49.10 13.54L49.10 13.54Q48.96 13.19 48.75 12.39L48.75 12.39L48.75 12.39Q47.67 13.44 46.68 13.44ZM46.02 11.98L46.02 11.98L46.02 11.98Q46.42 12.40 47.12 12.40L47.12 12.40L47.12 12.40Q47.82 12.40 48.58 11.73L48.58 11.73L48.58 7.78L48.58 7.78Q47.85 7.25 46.76 7.25L46.76 7.25L46.76 7.25Q46.13 7.25 45.79 7.50L45.79 7.50L45.79 7.50Q45.28 8.33 45.28 9.79L45.28 9.79L45.28 9.79Q45.28 11.24 46.02 11.98ZM57.34 7.35L57.34 7.35Q56.88 7.63 56.62 8.32L56.62 8.32L56.62 8.32Q56.35 9.02 56.35 9.97L56.35 9.97L56.35 9.97Q56.35 10.93 56.73 11.65L56.73 11.65L56.73 11.65Q57.12 12.36 57.96 12.36L57.96 12.36L57.96 12.36Q58.52 12.36 59.26 12.10L59.26 12.10L59.26 12.10Q60.00 11.84 60.24 11.66L60.24 11.66L60.59 12.21L60.59 12.21Q58.80 13.44 57.88 13.44L57.88 13.44L57.88 13.44Q56.48 13.44 55.67 12.49L55.67 12.49L55.67 12.49Q54.87 11.54 54.87 10.00L54.87 10.00L54.87 10.00Q54.87 8.46 55.91 7.42L55.91 7.42L55.91 7.42Q56.95 6.38 58.29 6.38L58.29 6.38L58.29 6.38Q59.63 6.38 60.51 6.99L60.51 6.99L60.51 6.99Q59.96 7.85 59.79 8.04L59.79 8.04L59.79 8.04Q58.84 7.31 57.97 7.31L57.97 7.31L57.97 7.31Q57.65 7.31 57.34 7.35L57.34 7.35ZM64.41 13.44L64.41 13.44L64.41 13.44Q63.24 13.44 62.77 12.83L62.77 12.83L62.77 12.83Q62.30 12.22 62.30 10.95L62.30 10.95L62.30 8.95L62.30 8.95Q62.30 7.62 61.88 6.66L61.88 6.66L61.88 6.57L63.83 6.57L63.83 6.66L63.83 6.66Q63.62 7.41 63.62 8.53L63.62 8.53L63.62 10.72L63.62 10.72Q63.62 11.56 63.83 11.93L63.83 11.93L63.83 11.93Q64.04 12.29 64.85 12.29L64.85 12.29L64.85 12.29Q65.66 12.29 66.75 11.52L66.75 11.52L66.75 8.95L66.75 8.95Q66.75 7.59 66.35 6.66L66.35 6.66L66.35 6.57L68.28 6.57L68.28 6.66L68.28 6.66Q68.07 7.41 68.07 8.53L68.07 8.53L68.07 10.89L68.07 10.89Q68.07 11.51 68.28 12.10L68.28 12.10L68.28 12.10Q68.49 12.70 68.77 12.89L68.77 12.89L68.78 13.06L67.14 13.45L67.14 13.45Q66.91 12.81 66.81 12.22L66.81 12.22L66.81 12.22Q66.12 12.81 65.56 13.13L65.56 13.13L65.56 13.13Q65.00 13.44 64.41 13.44ZM72.37 7.35L72.37 11.72L72.37 11.72Q72.37 12.46 72.81 12.46L72.81 12.46L72.81 12.46Q73.19 12.46 74.09 12.01L74.09 12.01L74.38 12.50L74.38 12.50Q73.93 12.81 73.26 13.13L73.26 13.13L73.26 13.13Q72.59 13.44 72.03 13.44L72.03 13.44L72.03 13.44Q71.47 13.44 71.26 13.09L71.26 13.09L71.26 13.09Q71.05 12.74 71.05 12.08L71.05 12.08L71.05 7.36L69.79 7.43L70.13 6.52L70.13 6.52Q70.38 6.55 71.02 6.58L71.02 6.58L71.02 6.58Q70.99 5.88 70.94 5.32L70.94 5.32L72.37 4.96L72.37 6.57L72.37 6.57Q73.12 6.54 74.42 6.40L74.42 6.40L74.03 7.49L74.03 7.49Q73.28 7.38 72.37 7.35L72.37 7.35Z"></path></g><!----><g data-v-423bf9ae="" id="23cdf187-5001-4872-a96c-0fa9e1c808df" transform="matrix(1.5,0,0,1.5,-2.0000206232070923,-3)" stroke="none" fill="white"><path d="M57.737 29.756C59.735 28.805 62 27.727 62 25a5 5 0 0 0-9.954-.679L46.033 26.9l-14.325-7.52A5.921 5.921 0 0 0 32 17.494a6.085 6.085 0 0 0-1.729-4.261 4.143 4.143 0 0 1 0-5.972A6.083 6.083 0 0 0 32 3V2H5v1a4.115 4.115 0 0 1-1.271 2.986 6.115 6.115 0 0 0 0 8.522 4.143 4.143 0 0 1 0 5.972 6.116 6.116 0 0 0 0 8.523 4.148 4.148 0 0 1 0 5.976 6.119 6.119 0 0 0 0 8.525 4.149 4.149 0 0 1 0 5.977 6.124 6.124 0 0 0 0 8.529A4.122 4.122 0 0 1 5 61v1h17v-1a6.094 6.094 0 0 0-1.731-4.268 4.149 4.149 0 0 1 0-5.975A6.1 6.1 0 0 0 22 46.49a6.376 6.376 0 0 0-.108-1.154 5.282 5.282 0 0 0 1.5-.414L46.033 35.1l6.013 2.577A5 5 0 0 0 62 37c0-2.727-2.265-3.8-4.263-4.756L55.013 31zM25.271 7.261A6.349 6.349 0 0 0 26.926 4h2.966a4.758 4.758 0 0 1-1.163 1.986 6.115 6.115 0 0 0 0 8.522 4.143 4.143 0 0 1 0 5.972 6.116 6.116 0 0 0 0 8.524 4.756 4.756 0 0 1 1.162 1.986h-2.965a6.342 6.342 0 0 0-1.655-3.261 4.145 4.145 0 0 1 0-5.974 6.115 6.115 0 0 0 0-8.522 4.143 4.143 0 0 1 0-5.972zm5 20.468a6.476 6.476 0 0 1-.93-1.336l8.372 4.507-18.7 8.132a4.176 4.176 0 0 1 1.259-2.778 6.391 6.391 0 0 0 1.648-3.266L32 32.99v-1a6.085 6.085 0 0 0-1.729-4.261zM21.917 4h2.972a4.747 4.747 0 0 1-1.16 1.986 6.115 6.115 0 0 0 0 8.522 4.143 4.143 0 0 1 0 5.972 6.116 6.116 0 0 0 0 8.524A4.752 4.752 0 0 1 24.891 31h-2.974a6.377 6.377 0 0 0-1.645-3.259 4.148 4.148 0 0 1 0-5.975 6.116 6.116 0 0 0 0-8.526 4.147 4.147 0 0 1 0-5.975A6.377 6.377 0 0 0 21.917 4zM8.831 60h-1.9a6.353 6.353 0 0 0-1.655-3.264 4.152 4.152 0 0 1 0-5.98 6.121 6.121 0 0 0 0-8.527 4.147 4.147 0 0 1 0-5.975 6.12 6.12 0 0 0 0-8.526 4.144 4.144 0 0 1 0-5.973 6.115 6.115 0 0 0 0-8.522 4.143 4.143 0 0 1 0-5.972A6.349 6.349 0 0 0 6.926 4h2.966a4.758 4.758 0 0 1-1.163 1.986 6.115 6.115 0 0 0 0 8.522 4.143 4.143 0 0 1 0 5.972 6.116 6.116 0 0 0 0 8.523 4.148 4.148 0 0 1 0 5.976 6.119 6.119 0 0 0 0 8.525 4.149 4.149 0 0 1 0 5.977 6.124 6.124 0 0 0 0 8.529A4.761 4.761 0 0 1 9.892 60zm3.086 0a6.387 6.387 0 0 0-1.646-3.264 4.152 4.152 0 0 1 0-5.98 6.121 6.121 0 0 0 0-8.527 4.147 4.147 0 0 1 0-5.975 6.12 6.12 0 0 0 0-8.526 4.144 4.144 0 0 1 0-5.973 6.115 6.115 0 0 0 0-8.522 4.143 4.143 0 0 1 0-5.972A6.388 6.388 0 0 0 11.917 4h2.972a4.767 4.767 0 0 1-1.158 1.982 6.116 6.116 0 0 0 0 8.526 4.147 4.147 0 0 1 0 5.975 6.117 6.117 0 0 0 0 8.525 4.148 4.148 0 0 1 0 5.975 6.117 6.117 0 0 0 0 8.525 4.149 4.149 0 0 1 0 5.975 6.119 6.119 0 0 0 0 8.524A4.764 4.764 0 0 1 14.89 60zm6.812-10.517a6.119 6.119 0 0 0 0 8.524A4.751 4.751 0 0 1 19.892 60h-2.966a6.352 6.352 0 0 0-1.657-3.268 4.149 4.149 0 0 1 0-5.975 6.119 6.119 0 0 0 0-8.524 4.148 4.148 0 0 1 0-5.975 6.117 6.117 0 0 0 0-8.525 4.148 4.148 0 0 1 0-5.975 6.116 6.116 0 0 0 0-8.526 4.147 4.147 0 0 1 0-5.975A6.347 6.347 0 0 0 16.926 4h2.965a4.754 4.754 0 0 1-1.16 1.982 6.116 6.116 0 0 0 0 8.526 4.147 4.147 0 0 1 0 5.975 6.117 6.117 0 0 0 0 8.525 4.148 4.148 0 0 1 0 5.975A6.08 6.08 0 0 0 17 39.24c0 .228.015.443.035.654l-.434.189a1 1 0 0 0-.529 1.289l.4 1a4.714 4.714 0 0 0 2.666 2.612 5.317 5.317 0 0 0 .628.186A3.81 3.81 0 0 1 20 46.49a4.128 4.128 0 0 1-1.271 2.993zm3.861-6.395a3.512 3.512 0 0 1-2.7.044 2.74 2.74 0 0 1-1.558-1.5l-.04-.1 21.165-9.2 1.252 3.132zm16.9-13.5l-10.423-5.614a4.5 4.5 0 0 1 1.2-2.219c.158-.192.325-.4.49-.615l9.978 5.32zM45 33.382l-2.475 1.238L41.077 31l1.448-3.62L45 28.618zm11.878.668C58.813 34.971 60 35.606 60 37a3 3 0 0 1-6 0 1 1 0 0 0-.606-.919l-4.918-2.108L52.6 32.1zM47 32.447v-3.788l6.394-2.74A1 1 0 0 0 54 25a3 3 0 0 1 6 0c0 1.394-1.187 2.029-3.122 2.95z"></path><path d="M56 24h2v2h-2zM56 36h2v2h-2z"></path></g><!----></svg>